<?xml version="1.0" encoding="utf-8"?>
<!-- Generator: Adobe Illustrator 23.0.1, SVG Export Plug-In . SVG Version: 6.00 Build 0)  -->
<svg version="1.1" id="Camada_1" xmlns="http://www.w3.org/2000/svg" xmlns:xlink="http://www.w3.org/1999/xlink" x="0px" y="0px"
	 viewBox="0 0 566.93 240.7" style="enable-background:new 0 0 566.93 240.7;" xml:space="preserve">
<style type="text/css">
	.st0{clip-path:url(#SVGID_2_);fill:#E87914;}
	.st1{clip-path:url(#SVGID_2_);fill:#281A4E;}
</style>
<g>
	<defs>
		<rect id="SVGID_1_" width="566.93" height="240.7"/>
	</defs>
	<clipPath id="SVGID_2_">
		<use xlink:href="#SVGID_1_"  style="overflow:visible;"/>
	</clipPath>
	<path class="st0" d="M117.27,195.67c-6.23,0-10.49,4.61-10.49,10.9c0,6.29,4.25,10.91,10.49,10.91c3.71,0,6.35-1.62,8.03-3.65
		c0.54-0.54,1.08-0.72,1.74-0.72c1.2,0,2.34,0.9,2.34,2.4c0,0.6-0.24,1.08-0.66,1.62c-2.22,2.58-6.23,4.85-11.56,4.85
		c-8.69,0-15.22-6.53-15.22-15.4c0-8.87,6.53-15.4,15.28-15.4c4.97,0,8.81,1.92,11.08,4.43c0.48,0.48,0.72,1.02,0.72,1.68
		c0,1.32-0.96,2.34-2.34,2.34c-0.66,0-1.2-0.24-1.68-0.72C123.09,196.92,120.69,195.67,117.27,195.67"/>
	<path class="st0" d="M134.53,206.57c0-8.87,6.47-15.4,15.34-15.4c8.93,0,15.4,6.53,15.4,15.4c0,8.87-6.47,15.4-15.4,15.4
		C141,221.97,134.53,215.44,134.53,206.57 M149.87,217.48c6.29,0,10.55-4.61,10.55-10.91c0-6.29-4.25-10.9-10.55-10.9
		c-6.29,0-10.49,4.61-10.49,10.9C139.38,212.86,143.58,217.48,149.87,217.48"/>
	<path class="st0" d="M212.49,201.3v17.74c0,1.44-0.9,2.52-2.4,2.52s-2.4-1.08-2.4-2.52v-17.5c0-3.72-2.88-5.99-6.53-5.99
		c-3.6,0-6.53,2.58-6.53,5.69v17.8c0,1.44-0.96,2.52-2.46,2.52c-1.5,0-2.4-1.08-2.4-2.52v-17.8c0-3.12-2.94-5.69-6.53-5.69
		c-3.6,0-6.53,2.52-6.53,5.69v17.8c0,1.44-0.96,2.52-2.46,2.52s-2.4-1.08-2.4-2.52v-24.93c0-1.44,0.9-2.52,2.4-2.52
		c1.44,0,2.34,0.96,2.46,2.28v1.02h0.24c0.9-1.38,4.13-3.71,7.79-3.71c3,0,6.23,1.44,8.09,4.19c1.86-2.4,5.09-4.19,9.41-4.19
		C207.69,191.17,212.49,194.71,212.49,201.3"/>
	<path class="st0" d="M236.1,191.17c8.51,0,14.62,6.29,14.62,15.16c0,8.87-6.23,15.64-15.4,15.64c-8.27,0-14.68-4.79-14.68-13.24
		V182c0-1.44,0.9-2.52,2.4-2.52s2.46,1.08,2.46,2.52v14.44h0.3C226.93,194.65,230.1,191.17,236.1,191.17 M235.2,217.48
		c7.01,0,10.61-4.61,10.61-10.91c0-6.71-3.6-10.96-10.13-10.96c-6.29,0-10.19,3.77-10.19,9.47v3.48
		C225.49,214.54,229.44,217.48,235.2,217.48"/>
	<path class="st0" d="M283.61,194.11v24.93c0,1.44-0.96,2.52-2.46,2.52c-1.5,0-2.4-1.08-2.4-2.52v-1.56h-0.3
		c-1.14,1.98-4.91,4.38-9.89,4.38c-6.29,0-11.33-3.48-11.33-11.8v-15.94c0-1.44,0.9-2.52,2.4-2.52c1.5,0,2.46,1.08,2.46,2.52v15.94
		c0,5.33,3.18,7.37,7.85,7.37c6.35,0,8.81-3.77,8.81-6.83v-16.48c0-1.44,0.9-2.52,2.4-2.52
		C282.65,191.59,283.61,192.67,283.61,194.11"/>
	<path class="st0" d="M313.27,212.98c0,5.33-4.55,8.99-11.33,8.99c-5.63,0-9.23-2.34-11.03-4.49c-0.54-0.66-0.84-1.2-0.84-1.86
		c0-1.32,1.02-2.28,2.28-2.28c0.9,0,1.5,0.42,1.86,0.84c1.62,2.04,4.08,3.59,7.91,3.59c3.9,0,6.41-1.62,6.41-4.38
		c0-6.77-16.84-4.01-16.84-14.02c0-5.21,4.55-8.21,10.13-8.21c3.95,0,7.73,1.5,9.71,3.65c0.42,0.42,0.72,0.84,0.72,1.56
		c0,1.32-0.96,2.28-2.16,2.28c-0.54,0-1.08-0.18-1.5-0.54c-1.92-1.8-4.07-2.76-6.83-2.76c-3.42,0-5.45,1.38-5.45,3.66
		C296.31,205.49,313.27,202.62,313.27,212.98"/>
	<path class="st0" d="M325.01,182.42c1.5,0,2.46,1.08,2.46,2.58v6.59h6.71c1.44,0,2.46,0.84,2.46,2.22c0,1.44-1.02,2.28-2.46,2.28
		h-6.71v14.68c0,4.61,2.16,6.17,5.27,6.17h1.62c1.44,0,2.4,0.84,2.4,2.34c0,1.44-0.96,2.28-2.4,2.28h-1.62
		c-5.81,0-10.13-2.94-10.13-10.79v-14.68h-3.12c-1.44,0-2.52-0.84-2.52-2.28c0-1.38,1.08-2.22,2.52-2.22h3.12V185
		C322.62,183.5,323.52,182.42,325.01,182.42"/>
	<path class="st0" d="M344.19,194.11c0-1.44,0.96-2.52,2.46-2.52c1.44,0,2.4,1.08,2.4,2.52v24.93c0,1.44-0.96,2.52-2.4,2.52
		c-1.5,0-2.46-1.08-2.46-2.52V194.11z"/>
	<path class="st0" d="M382.84,195.13l-11.15,25.11c-0.48,1.02-1.32,1.62-2.34,1.62c-0.96,0-1.86-0.6-2.34-1.62l-11.15-25.11
		c-0.66-1.38-0.36-3.54,2.1-3.54c0.78,0,1.74,0.24,2.28,1.5l9.11,21.69l9.11-21.69c0.54-1.26,1.5-1.5,2.28-1.5
		C383.2,191.59,383.5,193.75,382.84,195.13"/>
	<path class="st0" d="M401.89,191.17c8.03,0,13.66,5.51,13.66,11.86c0,4.43-3,4.79-4.14,4.79H392c0.6,5.93,4.85,9.71,10.73,9.71
		c2.88,0,5.09-0.96,6.59-2.16c0.9-0.66,1.5-0.78,1.98-0.78c1.5,0,2.22,1.14,2.22,2.34c0,0.72-0.3,1.44-1.44,2.16
		c-2.22,1.62-5.57,2.88-9.47,2.88c-9.59,0-15.52-6.59-15.52-15.4C387.09,197.52,393.44,191.17,401.89,191.17 M401.89,195.43
		c-5.03,0-8.75,3.24-9.71,8.33h18.64C410.82,198.66,406.86,195.43,401.89,195.43"/>
	<path class="st0" d="M421.55,182.48c0-1.8,1.32-3.06,3.12-3.06c1.8,0,3.06,1.26,3.06,3.06c0,1.8-1.26,3.06-3.06,3.06
		C422.86,185.54,421.55,184.28,421.55,182.48 M422.2,194.11c0-1.44,0.96-2.52,2.46-2.52c1.44,0,2.4,1.08,2.4,2.52v24.93
		c0,1.44-0.96,2.52-2.4,2.52c-1.5,0-2.46-1.08-2.46-2.52V194.11z"/>
	<path class="st0" d="M457.26,212.98c0,5.33-4.55,8.99-11.33,8.99c-5.63,0-9.23-2.34-11.03-4.49c-0.54-0.66-0.84-1.2-0.84-1.86
		c0-1.32,1.02-2.28,2.28-2.28c0.9,0,1.5,0.42,1.86,0.84c1.62,2.04,4.08,3.59,7.91,3.59c3.9,0,6.41-1.62,6.41-4.38
		c0-6.77-16.84-4.01-16.84-14.02c0-5.21,4.55-8.21,10.13-8.21c3.95,0,7.73,1.5,9.71,3.65c0.42,0.42,0.72,0.84,0.72,1.56
		c0,1.32-0.96,2.28-2.16,2.28c-0.54,0-1.08-0.18-1.5-0.54c-1.92-1.8-4.07-2.76-6.83-2.76c-3.42,0-5.45,1.38-5.45,3.66
		C440.3,205.49,457.26,202.62,457.26,212.98"/>
	<path class="st1" d="M146.68,107.39c-0.17,14.41-3.42,27.04-11.42,38.22c-2.24,3.12-2.21,3.14,0.52,5.88
		c1.04,1.04,2.12,2.05,3.09,3.16c2.76,3.17,2.64,7.35-0.25,10.38c-2.94,3.09-6.76,3.44-10.19,0.89c-2.23-1.66-4.03-3.79-5.98-5.75
		c-0.82-0.83-1.48-0.88-2.44-0.27c-11.91,7.55-25.07,9.97-38.91,9.07c-14.47-0.95-27.33-6.01-37.82-16.24
		c-8.1-7.9-13.25-17.56-15.62-28.59c-3.28-15.27-2.47-30.28,4.39-44.5c8.51-17.61,22.87-27.79,41.97-31.17
		c14.28-2.52,28.23-1.15,41.28,5.57c17.13,8.82,26.83,23.14,30.29,41.9c0.3,1.62,0.56,3.25,0.67,4.89
		C146.42,103.28,146.83,105.74,146.68,107.39 M41.69,108.11c0,1.65-0.04,3.3,0.01,4.94c0.03,0.94,0.19,1.87,0.34,2.8
		c1.9,12.28,7.43,22.48,17.48,30.01c8.93,6.69,19.12,9.16,30.12,8.48c6.66-0.41,12.97-2.18,18.82-5.52c1.31-0.75,1.4-1.31,0.32-2.33
		c-1.92-1.82-3.78-3.71-5.63-5.61c-2.63-2.7-5.49-5.17-7.88-8.1c-1.37-1.68-2.29-3.6-1.86-5.86c0.63-3.38,2.71-5.61,5.9-6.66
		c3.07-1.01,5.64,0.11,7.82,2.35c4.37,4.46,8.79,8.86,13.11,13.36c1.17,1.21,1.84,1.06,2.67-0.27c1.24-2,2.5-3.99,3.5-6.13
		c4.61-9.81,5.68-20.12,3.79-30.68c-2.34-13.04-8.89-23.46-20.33-30.45c-10.06-6.14-21.02-7.52-32.49-5.56
		c-9.18,1.57-17.07,5.77-23.41,12.54C45.37,84.58,41.5,95.63,41.69,108.11"/>
	<path class="st1" d="M308.77,155.4c-3.26,2.99-6.4,5.7-10.05,7.82c-13.95,8.12-32.28,6.32-44.25-4.51
		c-8.51-7.69-12.69-17.46-13.59-28.78c-0.76-9.56,0.99-18.55,6.1-26.7c7.04-11.24,17.3-17.55,30.43-19.15
		c11.57-1.41,22.2,1.2,31.35,8.51c10.03,8.01,15.45,18.6,15.72,31.47c0.25,11.94,0.08,23.9,0.06,35.85
		c-0.01,4.64-3.16,7.74-7.77,7.76c-4.77,0.02-7.92-3.02-7.98-7.74C308.75,158.42,308.77,156.91,308.77,155.4 M309.12,126.17
		c0-1.23,0.04-2.47-0.02-3.7c-0.04-0.82-0.18-1.64-0.35-2.44c-2.19-10.45-7.96-18.05-18.37-21.06c-10.46-3.02-19.93-0.62-27.3,7.65
		c-6.6,7.41-8.2,16.29-6.45,25.91c2.91,16.06,20.18,25.8,35.41,19.97C302.76,148.39,309.2,138.51,309.12,126.17"/>
	<path class="st1" d="M216.04,158.59c-5.54,5.11-11.72,8.17-18.77,9.19c-12.75,1.84-24.32-0.65-33.59-10.19
		c-5.58-5.73-8.32-12.87-9.39-20.71c-0.33-2.4-0.38-4.81-0.38-7.22c0.01-12.6-0.01-25.2,0.01-37.8c0.01-3.76,2.28-6.59,5.84-7.42
		c3.81-0.89,7.46,0.71,9.13,3.99c0.69,1.35,0.79,2.81,0.79,4.29c-0.01,12.31-0.02,24.61,0.01,36.92c0.01,2.83,0.33,5.64,1.05,8.38
		c1.74,6.65,5.71,11.5,12.13,13.98c7.84,3.03,15.71,2.91,23.21-1.16c6.61-3.59,10.04-9.23,10.05-16.81
		c0.02-14.01,0-28.03,0.01-42.04c0.01-3.54,1.8-6.16,4.86-7.27c3.37-1.22,6.89-0.44,9.08,2.03c1.45,1.64,1.84,3.59,1.84,5.73
		c-0.03,22.25-0.02,44.51-0.02,66.77c0,0.29,0,0.59-0.01,0.88c-0.1,4.31-3.35,7.44-7.76,7.48c-4.4,0.04-7.76-3.01-7.99-7.28
		C216.12,159.87,216.09,159.42,216.04,158.59"/>
	<path class="st1" d="M461.08,84.42c3.42-0.14,5.45,1.8,6.87,4.63c2.88,5.74,5.75,11.48,8.64,17.21
		c5.9,11.73,11.81,23.46,17.73,35.18c0.23,0.46,0.34,1.21,0.86,1.24c0.73,0.04,0.73-0.81,0.95-1.3
		c7.6-17.11,15.19-34.22,22.77-51.34c0.1-0.21,0.21-0.42,0.3-0.64c2.49-6.44,8.18-5.79,12.16-3.17c2.33,1.53,3.24,3.89,2.5,6.61
		c-1.03,3.77-2.95,7.18-4.53,10.73c-13.53,30.51-27.11,61.01-40.68,91.51c-0.74,1.67-1.45,3.35-2.26,4.99
		c-1.7,3.41-4.43,4.59-8.05,3.43c-3.06-0.98-5.64-2.54-6.01-6.16c-0.2-2.02,0.71-3.78,1.5-5.55c4.57-10.27,9.12-20.56,13.73-30.82
		c0.56-1.24,0.55-2.23-0.1-3.45c-10.89-20.55-21.72-41.13-32.6-61.69C451.86,90.13,454.92,84.44,461.08,84.42"/>
	<path class="st1" d="M415.94,122.55c0-7.44-0.04-13.56,0.03-19.69c0.02-1.54-0.46-2.13-2.02-2.03c-1.7,0.11-3.42,0.07-5.12,0
		c-3.88-0.14-6.67-2.66-6.94-6.19c-0.28-3.7,2.07-6.48,6.05-7.17c1.99-0.34,4-0.2,5.99-0.14c1.54,0.04,2.05-0.48,2.04-2.03
		c-0.06-7.48-0.05-14.95-0.02-22.43c0.03-5.59,4.43-9.02,9.87-7.75c3.53,0.82,5.74,3.72,5.76,7.68c0.03,7.42,0.06,14.84-0.03,22.25
		c-0.02,1.81,0.56,2.35,2.33,2.29c3.41-0.12,6.83-0.1,10.25-0.01c4.72,0.13,7.34,2.7,7.32,7.01c-0.02,3.77-2.74,6.41-6.86,6.5
		c-3.65,0.08-7.3,0.08-10.95,0c-1.51-0.03-2.07,0.4-2.06,1.99c0.06,11.89,0.01,23.78,0.05,35.68c0.02,4.17,1.39,7.85,4.47,10.78
		c1.83,1.74,3.98,2.68,6.52,2.69c1.53,0.01,3.06-0.01,4.59,0.01c3.87,0.03,6.73,2.3,7.34,5.8c0.76,4.38-1.08,7.91-5.01,9.15
		c-3.91,1.24-7.94,0.96-11.88,0.14c-11.56-2.41-20.3-12.53-21.4-24.48C415.59,135.47,416.18,128.34,415.94,122.55"/>
	<path class="st1" d="M333.51,102.57c0-13.19,0.02-26.38-0.02-39.56c-0.01-3.23,1.31-5.63,4.15-7.01c2.92-1.42,5.85-1.15,8.51,0.79
		c1.95,1.42,2.77,3.43,2.77,5.82c-0.01,6.95,0,13.89,0,20.84c0,17.6,0.01,35.21-0.01,52.81c0,2.77,0.14,5.53,0.68,8.25
		c0.32,1.64,0.97,3.16,1.91,4.53c1.3,1.9,3.01,3.12,5.47,2.94c1-0.08,2-0.03,3,0c3.53,0.1,6.01,2,6.9,5.25
		c0.98,3.57-0.15,6.71-3.21,8.57c-3.71,2.25-7.76,2.22-11.81,1.32c-8.68-1.93-13.7-7.78-16.56-15.82c-1.23-3.46-1.8-7.05-1.8-10.74
		C333.52,127.89,333.51,115.23,333.51,102.57"/>
	<path class="st0" d="M382.91,82.22c-2.96-0.09-5.31-1.12-6.97-3.46c-6.61-9.38-13.22-18.77-19.81-28.17
		c-1.5-2.14-1.34-4.71,0.29-6.31c1.74-1.72,4.25-1.86,6.41-0.12c5.73,4.61,11.4,9.31,17.09,13.97c1.81,1.48,1.84,1.47,3.38-0.24
		c11.3-12.47,22.61-24.94,33.92-37.41c1.54-1.7,3.08-3.4,4.59-5.13c1.88-2.15,4.68-2.59,6.78-1.02c2.01,1.5,2.35,4.21,0.7,6.62
		c-8.48,12.38-17,24.75-25.5,37.12c-4.64,6.74-9.29,13.48-13.89,20.24C388.17,80.86,385.78,82.09,382.91,82.22"/>
	<path class="st1" d="M375.93,129.05c0-10.19-0.01-20.38,0-30.57c0.01-4.69,3.23-7.91,7.87-7.92c4.58-0.01,7.86,3.12,7.87,7.73
		c0.03,20.55,0.03,41.11,0,61.66c-0.01,3.99-2.5,6.83-6.36,7.54c-3.79,0.69-7.38-1.18-8.85-4.59c-0.48-1.12-0.53-2.28-0.53-3.46
		C375.94,149.31,375.93,139.18,375.93,129.05"/>
	<path class="st0" d="M354.73,181.99l-4.51,5.1c-0.79,0.9-2.17,0.98-3.06,0.19c-0.9-0.79-0.98-2.16-0.19-3.06l4.51-5.1
		c0.79-0.9,2.17-0.98,3.06-0.19C355.44,179.72,355.53,181.09,354.73,181.99"/>
</g>
</svg>
